<?xml version="1.0" encoding="UTF-8" standalone="no"?>
<svg
   xmlns:dc="http://purl.org/dc/elements/1.1/"
   xmlns:cc="http://creativecommons.org/ns#"
   xmlns:rdf="http://www.w3.org/1999/02/22-rdf-syntax-ns#"
   xmlns:svg="http://www.w3.org/2000/svg"
   xmlns="http://www.w3.org/2000/svg"
   viewBox="0 0 177.16499 177.16499"
   height="177.16499"
   width="177.16499"
   xml:space="preserve"
   version="1.1"
   id="svg2"><metadata
     id="metadata8"><rdf:RDF><cc:Work
         rdf:about=""><dc:format>image/svg+xml</dc:format><dc:type
           rdf:resource="http://purl.org/dc/dcmitype/StillImage" /></cc:Work></rdf:RDF></metadata><defs
     id="defs6"><clipPath
       id="clipPath36"
       clipPathUnits="userSpaceOnUse"><path
         id="path38"
         d="m 0,141.732 141.732,0 L 141.732,0 0,0 0,141.732 Z" /></clipPath></defs><g
     transform="matrix(1.25,0,0,-1.25,0,177.165)"
     id="g10"><g
       transform="translate(111.1416,105.3364)"
       id="g12"><path
         id="path14"
         style="fill:#e7a63b;fill-opacity:1;fill-rule:nonzero;stroke:none"
         d="m 0,0 -40.275,0 -40.276,0 7.548,-81.885 32.728,-9.279 32.715,9.279 L 0,0 Z" /></g><g
       transform="translate(70.8662,98.666)"
       id="g16"><path
         id="path18"
         style="fill:#f1c137;fill-opacity:1;fill-rule:nonzero;stroke:none"
         d="M 0,0 0,-77.559 26.502,-70.046 32.956,0 0,0 Z" /></g><g
       transform="translate(91.9512,88.6182)"
       id="g20"><path
         id="path22"
         style="fill:#ffffff;fill-opacity:1;fill-rule:nonzero;stroke:none"
         d="m 0,0 -40.763,0 -2.833,-30.66 0.06,0.192 34.626,0 -1.13,-12.969 -11.045,-3.184 -11.214,3.232 -0.673,7.849 -10.18,0 1.455,-15.685 20.612,-5.853 20.612,5.853 2.837,30.781 -36.742,0 0.468,10.264 25.503,0 0.375,-5.875 10.271,0 L 0,0 Z" /></g><g
       transform="translate(58.9795,53.0781)"
       id="g24"><path
         id="path26"
         style="fill:#ebebec;fill-opacity:1;fill-rule:nonzero;stroke:none"
         d="m 0,0 -10.18,0 1.454,-15.685 20.613,-5.84 0,10.444 L 0.673,-7.849 0,0 Z m 11.887,35.54 -19.679,0 -2.833,-30.66 0.061,0.192 22.451,0 0,10.024 -11.876,0 0.468,10.264 11.408,0 0,10.18 z" /></g><g
       transform="translate(63.0278,117.415)"
       id="g28"><path
         id="path30"
         style="fill:#373535;fill-opacity:1;fill-rule:nonzero;stroke:none"
         d="m 0,0 -7.163,0 0,-5.144 7.163,0 3.835,0 1.298,0 0,15.288 L 0,10.144 0,0 Z" /></g><g
       id="g32"><g
         clip-path="url(#clipPath36)"
         id="g34"><g
           transform="translate(85.8682,127.4814)"
           id="g40"><path
             id="path42"
             style="fill:#373535;fill-opacity:1;fill-rule:nonzero;stroke:none"
             d="m 0,0 -12.494,0 0,-5.354 c 1.67,-1.671 2.543,-2.471 4.961,-4.889 -1.414,0 -4.961,-0.005 -4.961,-0.005 l 0,-4.884 12.494,0 0,4.885 -4.99,4.893 4.99,0 L 0,0 Z" /></g></g></g></g></svg>